<svg xmlns="http://www.w3.org/2000/svg" xmlns:xlink="http://www.w3.org/1999/xlink" width="199.177" height="199.177" viewBox="0 0 199.177 199.177">
  <defs>
    <linearGradient id="linear-gradient" x1="0.5" y1="1" x2="0.5" gradientUnits="objectBoundingBox">
      <stop offset="0" stop-color="#9f2fff"/>
      <stop offset="1" stop-color="#0bb1d3"/>
    </linearGradient>
  </defs>
  <path id="launch" d="M39.777,115.651l-12.85,25.7H38.55v57.826H160.627V141.352h11.623l-12.85-25.7Zm3.972,6.425H94.39l-6.425,12.85H37.324ZM154.2,192.752H102.8V170.265H96.376v22.488h-51.4v-51.4H91.937l4.439-8.88v28.155H102.8V132.472l4.439,8.88H154.2Zm1.227-70.676,6.425,12.85H111.212l-6.425-12.85ZM51.4,167.052H70.676v6.425H51.4Zm0,12.85H70.676v6.425H51.4Zm25.7,0h6.425v6.425H77.1ZM84.753,52.249l14.836-3.782,14.836,3.779,1.162-15.931,7.881-13.462L109.529,16.82,99.589,4.53,89.645,16.82,75.706,22.853l7.881,13.462Zm8.9-30.163,5.94-7.341,5.94,7.344,8.731,3.782-4.969,8.489-.714,9.769-8.988-2.29L90.6,44.127l-.714-9.769-4.969-8.491ZM16.127,58.806l.69,9.506L25.7,66.05l8.886,2.262.69-9.506,4.668-7.97-8.27-3.583L25.7,39.868,19.729,47.25l-8.27,3.583Zm7.6-6.287L25.7,50.083l1.969,2.436,3.062,1.327-1.757,3-.245,3.344L25.7,59.419l-3.029.77-.248-3.344-1.757-3ZM164.591,68.312l8.886-2.262,8.886,2.262.69-9.506,4.668-7.97-8.27-3.583-5.975-7.385-5.972,7.382-8.27,3.583L163.9,58.8Zm6.918-15.793,1.969-2.436,1.969,2.436,3.062,1.327-1.757,3-.245,3.344-3.029-.773-3.029.77-.245-3.344-1.757-3ZM39.979,76.561a71.243,71.243,0,0,1,16.144,14.8l12.725,15.9L66.216,86.215a41.261,41.261,0,0,0-16.1-27.749l-3.078-2.307L37.619,74.986Zm9.26-10.441a34.868,34.868,0,0,1,10.38,19.385A77.787,77.787,0,0,0,45.882,72.834Zm83.722,20.094-2.632,21.049,12.725-15.9a71.309,71.309,0,0,1,16.144-14.8l2.358-1.575-9.416-18.828-3.078,2.314A41.251,41.251,0,0,0,132.961,86.215ZM153.3,72.834a77.559,77.559,0,0,0-13.736,12.671,34.887,34.887,0,0,1,10.38-19.385ZM112.439,95.766a72.663,72.663,0,0,1,16.8-46.422l4.938,4.113a66.211,66.211,0,0,0-15.318,42.309v13.46h-6.425Zm28.913-50.79h-6.425V38.55h6.425Zm9.638-12.85h-6.425V25.7h6.425ZM80.314,95.766A66.2,66.2,0,0,0,64.993,53.457l4.938-4.113A72.655,72.655,0,0,1,86.739,95.766v13.46H80.314ZM64.251,44.976H57.826V38.55h6.425Zm-9.638-12.85H48.188V25.7h6.425ZM102.8,61.038H96.376V54.613H102.8Zm-6.425,6.425H102.8v41.763H96.376Zm96.376,25.7h-6.425V86.739h6.425Zm-6.425,6.425h6.425v6.425h-6.425Zm6.425-6.425h6.425v6.425h-6.425Zm-6.425,0v6.425H179.9V93.164ZM183.115,6.425H176.69V0h6.425ZM176.69,12.85h6.425v6.425H176.69Zm6.425,0V6.425h6.425V12.85Zm-6.425,0h-6.425V6.425h6.425ZM12.85,106.014H6.425V99.589H12.85Zm-6.425,6.425H12.85v6.425H6.425Zm6.425,0v-6.425h6.425v6.425Zm-6.425,0H0v-6.425H6.425ZM12.85,6.425H6.425V0H12.85ZM6.425,12.85H12.85v6.425H6.425Zm6.425,0V6.425h6.425V12.85Zm-6.425,0H0V6.425H6.425Zm0,0" fill="url(#linear-gradient)"/>
</svg>
